<svg xmlns="http://www.w3.org/2000/svg" viewBox="0 0 512 512">
  <defs>
    <!-- Background gradient -->
    <linearGradient id="bgGrad" x1="0%" y1="0%" x2="100%" y2="100%">
      <stop offset="0%" style="stop-color:#1a1a2e"/>
      <stop offset="100%" style="stop-color:#0f0f1a"/>
    </linearGradient>
    
    <!-- Command bar glassmorphism -->
    <linearGradient id="barGrad" x1="0%" y1="0%" x2="0%" y2="100%">
      <stop offset="0%" style="stop-color:#ffffff;stop-opacity:0.15"/>
      <stop offset="100%" style="stop-color:#ffffff;stop-opacity:0.05"/>
    </linearGradient>
    
    <!-- Glow effect -->
    <filter id="glow" x="-50%" y="-50%" width="200%" height="200%">
      <feGaussianBlur stdDeviation="8" result="blur"/>
      <feMerge>
        <feMergeNode in="blur"/>
        <feMergeNode in="SourceGraphic"/>
      </feMerge>
    </filter>
    
    <!-- Subtle inner shadow -->
    <filter id="innerShadow" x="-50%" y="-50%" width="200%" height="200%">
      <feOffset dx="0" dy="2"/>
      <feGaussianBlur stdDeviation="3" result="blur"/>
      <feComposite in2="SourceAlpha" operator="arithmetic" k2="-1" k3="1"/>
      <feColorMatrix type="matrix" values="0 0 0 0 0  0 0 0 0 0  0 0 0 0 0  0 0 0 0.3 0"/>
      <feBlend in2="SourceGraphic"/>
    </filter>
  </defs>
  
  <!-- Background rounded square -->
  <rect x="32" y="32" width="448" height="448" rx="96" ry="96" fill="url(#bgGrad)"/>
  
  <!-- Subtle border -->
  <rect x="32" y="32" width="448" height="448" rx="96" ry="96" 
        fill="none" stroke="#ffffff" stroke-opacity="0.08" stroke-width="2"/>
  
  <!-- Command bar background -->
  <rect x="96" y="216" width="320" height="80" rx="40" ry="40" 
        fill="url(#barGrad)" filter="url(#innerShadow)"/>
  
  <!-- Command bar border glow -->
  <rect x="96" y="216" width="320" height="80" rx="40" ry="40" 
        fill="none" stroke="#ffffff" stroke-opacity="0.25" stroke-width="2"/>
  
  <!-- Cursor line -->
  <rect x="136" y="236" width="3" height="40" rx="1.5" ry="1.5" fill="#ffffff" opacity="0.9"/>
  
  <!-- Three dots/sparkles above the bar -->
  <circle cx="220" cy="176" r="4" fill="#4a9eff" opacity="0.7"/>
  <circle cx="256" cy="164" r="5" fill="#4a9eff" opacity="0.9"/>
  <circle cx="292" cy="176" r="4" fill="#4a9eff" opacity="0.7"/>
  
  <!-- Connecting subtle arc -->
  <path d="M220 176 Q256 152 292 176" fill="none" stroke="#4a9eff" stroke-opacity="0.3" stroke-width="1.5"/>
</svg>
